<svg xmlns="http://www.w3.org/2000/svg" width="1600" height="1000" viewBox="0 0 1600 1000">
  <rect width="100%" height="100%" fill="white"/>
  <text x="20" y="30" font-family="Segoe UI,Arial,sans-serif" font-size="24" font-weight="700">IIS 2VM + SQL 1VM - Bicep Demo</text>
  <rect x="120" y="100" width="1320" height="760" rx="12" ry="12" fill="#eef7fc" stroke="#4b5563" stroke-width="2"/>
  <rect x="170" y="180" width="420" height="250" rx="10" ry="10" fill="#e8f2ff" stroke="#4f46e5" stroke-width="1.5"/>
  <rect x="730" y="180" width="420" height="250" rx="10" ry="10" fill="#f5ebff" stroke="#7c3aed" stroke-width="1.5"/>
  <rect x="260" y="440" width="260" height="70" rx="8" ry="8" fill="#fff7e8" stroke="#d97706"/>
  <rect x="200" y="620" width="140" height="60" rx="8" ry="8" fill="#fef3c7" stroke="#92400e"/>
  <rect x="200" y="220" width="180" height="70" rx="8" ry="8" fill="#ffffff" stroke="#4b5563"/>
  <rect x="400" y="220" width="160" height="70" rx="8" ry="8" fill="#ffffff" stroke="#4b5563"/>
  <rect x="220" y="320" width="150" height="70" rx="8" ry="8" fill="#ffffff" stroke="#4b5563"/>
  <rect x="400" y="320" width="150" height="70" rx="8" ry="8" fill="#ffffff" stroke="#4b5563"/>
  <rect x="760" y="220" width="180" height="90" rx="8" ry="8" fill="#ffffff" stroke="#4b5563"/>
  <rect x="970" y="220" width="150" height="70" rx="8" ry="8" fill="#ffffff" stroke="#4b5563"/>
  <rect x="970" y="320" width="150" height="70" rx="8" ry="8" fill="#ffffff" stroke="#4b5563"/>
  <text x="290" y="255" font-family="Segoe UI,Arial,sans-serif" font-size="13" text-anchor="middle">NSG: feNsg</text>
  <text x="480" y="255" font-family="Segoe UI,Arial,sans-serif" font-size="13" text-anchor="middle">Load Balancer</text>
  <text x="295" y="355" font-family="Segoe UI,Arial,sans-serif" font-size="13" text-anchor="middle">Web VM 1</text>
  <text x="475" y="355" font-family="Segoe UI,Arial,sans-serif" font-size="13" text-anchor="middle">Web VM 2</text>
  <text x="850" y="265" font-family="Segoe UI,Arial,sans-serif" font-size="13" text-anchor="middle">NSG: dbNsg</text>
  <text x="1045" y="255" font-family="Segoe UI,Arial,sans-serif" font-size="13" text-anchor="middle">SQL VM</text>
  <text x="1045" y="355" font-family="Segoe UI,Arial,sans-serif" font-size="13" text-anchor="middle">Public IP</text>
  <text x="390" y="475" font-family="Segoe UI,Arial,sans-serif" font-size="13" text-anchor="middle">Availability Set</text>
  <text x="270" y="650" font-family="Segoe UI,Arial,sans-serif" font-size="13" text-anchor="middle">Internet</text>
  <line x1="270" y1="620" x2="480" y2="290" stroke="#4b5563" stroke-width="2.5" marker-end="url(#arrow)"/>
  <line x1="480" y1="290" x2="295" y2="320" stroke="#4b5563" stroke-width="2.5" marker-end="url(#arrow)"/>
  <line x1="480" y1="290" x2="475" y2="320" stroke="#4b5563" stroke-width="2.5" marker-end="url(#arrow)"/>
  <line x1="295" y1="390" x2="1045" y2="220" stroke="#7c3aed" stroke-width="2.5" marker-end="url(#arrow)"/>
  <line x1="475" y1="390" x2="1045" y2="220" stroke="#7c3aed" stroke-width="2.5" marker-end="url(#arrow)"/>
  <defs>
    <marker id="arrow" markerWidth="10" markerHeight="10" refX="8" refY="3" orient="auto">
      <path d="M0,0 L0,6 L9,3 z" fill="#4b5563"/>
    </marker>
  </defs>
</svg>
