<svg xmlns="http://www.w3.org/2000/svg" width="1800" height="1100" viewBox="0 0 1800 1100">
  <rect width="100%" height="100%" fill="#ffffff"/>
  <text x="40" y="42" font-family="Segoe UI,Arial,sans-serif" font-size="26" font-weight="700">Terraform Demo Architecture</text>
  <rect x="40" y="70" width="1720" height="980" rx="16" ry="16" fill="#f5f9ff" stroke="#4b5563" stroke-width="2"/>

  <rect x="80" y="120" width="220" height="80" rx="10" ry="10" fill="#e8f2ff" stroke="#2563eb" stroke-width="1.5"/>
  <text x="190" y="165" font-family="Segoe UI,Arial,sans-serif" font-size="16" font-weight="600" text-anchor="middle">Resource Group</text>

  <rect x="360" y="120" width="360" height="280" rx="12" ry="12" fill="#eefcf3" stroke="#16a34a" stroke-width="1.5"/>
  <text x="540" y="152" font-family="Segoe UI,Arial,sans-serif" font-size="18" font-weight="600" text-anchor="middle">Virtual Network</text>
  <text x="540" y="178" font-family="Segoe UI,Arial,sans-serif" font-size="13" text-anchor="middle">10.10.0.0/16</text>

  <rect x="390" y="190" width="140" height="90" rx="10" ry="10" fill="#ffffff" stroke="#4b5563" stroke-width="1.2"/>
  <text x="460" y="225" font-family="Segoe UI,Arial,sans-serif" font-size="15" font-weight="600" text-anchor="middle">App Subnet</text>
  <text x="460" y="247" font-family="Segoe UI,Arial,sans-serif" font-size="13" text-anchor="middle">10.10.1.0/24</text>

  <rect x="560" y="190" width="140" height="90" rx="10" ry="10" fill="#ffffff" stroke="#4b5563" stroke-width="1.2"/>
  <text x="630" y="225" font-family="Segoe UI,Arial,sans-serif" font-size="15" font-weight="600" text-anchor="middle">DB Subnet</text>
  <text x="630" y="247" font-family="Segoe UI,Arial,sans-serif" font-size="13" text-anchor="middle">10.10.2.0/24</text>

  <rect x="380" y="320" width="160" height="60" rx="8" ry="8" fill="#fff7e6" stroke="#d97706" stroke-width="1.2"/>
  <text x="460" y="356" font-family="Segoe UI,Arial,sans-serif" font-size="14" font-weight="600" text-anchor="middle">NSG App</text>

  <rect x="560" y="320" width="160" height="60" rx="8" ry="8" fill="#fff7e6" stroke="#d97706" stroke-width="1.2"/>
  <text x="640" y="356" font-family="Segoe UI,Arial,sans-serif" font-size="14" font-weight="600" text-anchor="middle">NSG DB</text>

  <rect x="780" y="120" width="220" height="90" rx="10" ry="10" fill="#fff1f2" stroke="#e11d48" stroke-width="1.2"/>
  <text x="890" y="154" font-family="Segoe UI,Arial,sans-serif" font-size="16" font-weight="600" text-anchor="middle">Public IP</text>
  <text x="890" y="178" font-family="Segoe UI,Arial,sans-serif" font-size="13" text-anchor="middle">VM ingress endpoint</text>

  <rect x="780" y="240" width="220" height="100" rx="10" ry="10" fill="#fef3c7" stroke="#b45309" stroke-width="1.2"/>
  <text x="890" y="276" font-family="Segoe UI,Arial,sans-serif" font-size="16" font-weight="600" text-anchor="middle">Linux VM</text>
  <text x="890" y="300" font-family="Segoe UI,Arial,sans-serif" text-anchor="middle" font-size="13">Ubuntu 22.04 • Standard_B2s</text>

  <rect x="1040" y="120" width="220" height="100" rx="10" ry="10" fill="#f5ebff" stroke="#7c3aed" stroke-width="1.2"/>
  <text x="1150" y="154" font-family="Segoe UI,Arial,sans-serif" font-size="16" font-weight="600" text-anchor="middle">Storage Account</text>
  <text x="1150" y="178" font-family="Segoe UI,Arial,sans-serif" font-size="13" text-anchor="middle">Blob storage</text>

  <rect x="1040" y="250" width="220" height="100" rx="10" ry="10" fill="#f5ebff" stroke="#7c3aed" stroke-width="1.2"/>
  <text x="1150" y="284" font-family="Segoe UI,Arial,sans-serif" font-size="16" font-weight="600" text-anchor="middle">Key Vault</text>
  <text x="1150" y="308" font-family="Segoe UI,Arial,sans-serif" font-size="13" text-anchor="middle">Secrets and access policy</text>

  <rect x="1280" y="120" width="220" height="100" rx="10" ry="10" fill="#e0f2fe" stroke="#0284c7" stroke-width="1.2"/>
  <text x="1390" y="154" font-family="Segoe UI,Arial,sans-serif" font-size="16" font-weight="600" text-anchor="middle">App Service Plan</text>
  <text x="1390" y="178" font-family="Segoe UI,Arial,sans-serif" font-size="13" text-anchor="middle">Linux • P1v3</text>

  <rect x="1280" y="250" width="220" height="100" rx="10" ry="10" fill="#e0f2fe" stroke="#0284c7" stroke-width="1.2"/>
  <text x="1390" y="284" font-family="Segoe UI,Arial,sans-serif" font-size="16" font-weight="600" text-anchor="middle">Web App</text>
  <text x="1390" y="308" font-family="Segoe UI,Arial,sans-serif" font-size="13" text-anchor="middle">Python 3.11</text>

  <rect x="780" y="390" width="300" height="120" rx="10" ry="10" fill="#fdf2f8" stroke="#db2777" stroke-width="1.2"/>
  <text x="930" y="426" font-family="Segoe UI,Arial,sans-serif" font-size="16" font-weight="600" text-anchor="middle">Azure SQL Server</text>
  <text x="930" y="450" font-family="Segoe UI,Arial,sans-serif" font-size="13" text-anchor="middle">Admin login + password</text>

  <rect x="1110" y="390" width="220" height="120" rx="10" ry="10" fill="#fdf2f8" stroke="#db2777" stroke-width="1.2"/>
  <text x="1220" y="426" font-family="Segoe UI,Arial,sans-serif" font-size="16" font-weight="600" text-anchor="middle">SQL Database</text>
  <text x="1220" y="450" font-family="Segoe UI,Arial,sans-serif" font-size="13" text-anchor="middle">GP_S_Gen5_2 • 32 GB</text>

  <rect x="780" y="540" width="260" height="100" rx="10" ry="10" fill="#ecfeff" stroke="#0f766e" stroke-width="1.2"/>
  <text x="910" y="576" font-family="Segoe UI,Arial,sans-serif" font-size="16" font-weight="600" text-anchor="middle">Log Analytics Workspace</text>
  <text x="910" y="600" font-family="Segoe UI,Arial,sans-serif" font-size="13" text-anchor="middle">Centralized logs</text>

  <rect x="1080" y="540" width="260" height="100" rx="10" ry="10" fill="#ecfeff" stroke="#0f766e" stroke-width="1.2"/>
  <text x="1210" y="576" font-family="Segoe UI,Arial,sans-serif" font-size="16" font-weight="600" text-anchor="middle">Application Insights</text>
  <text x="1210" y="600" font-family="Segoe UI,Arial,sans-serif" font-size="13" text-anchor="middle">App telemetry</text>

  <line x1="300" y1="160" x2="360" y2="160" stroke="#4b5563" stroke-width="2" marker-end="url(#arrow)"/>
  <line x1="460" y1="280" x2="460" y2="320" stroke="#4b5563" stroke-width="2" marker-end="url(#arrow)"/>
  <line x1="640" y1="280" x2="640" y2="320" stroke="#4b5563" stroke-width="2" marker-end="url(#arrow)"/>
  <line x1="780" y1="180" x2="730" y2="180" stroke="#4b5563" stroke-width="2" marker-end="url(#arrow)"/>
  <line x1="780" y1="280" x2="720" y2="280" stroke="#4b5563" stroke-width="2" marker-end="url(#arrow)"/>
  <line x1="1000" y1="280" x2="1040" y2="170" stroke="#4b5563" stroke-width="2" marker-end="url(#arrow)"/>
  <line x1="1000" y1="280" x2="1040" y2="300" stroke="#4b5563" stroke-width="2" marker-end="url(#arrow)"/>
  <line x1="1000" y1="280" x2="1280" y2="170" stroke="#4b5563" stroke-width="2" marker-end="url(#arrow)"/>
  <line x1="1000" y1="280" x2="1280" y2="300" stroke="#4b5563" stroke-width="2" marker-end="url(#arrow)"/>
  <line x1="890" y1="340" x2="930" y2="390" stroke="#4b5563" stroke-width="2" marker-end="url(#arrow)"/>
  <line x1="930" y1="510" x2="1220" y2="390" stroke="#4b5563" stroke-width="2" marker-end="url(#arrow)"/>
  <line x1="910" y1="640" x2="1210" y2="640" stroke="#4b5563" stroke-width="2" marker-end="url(#arrow)"/>

  <defs>
    <marker id="arrow" markerWidth="10" markerHeight="10" refX="8" refY="3" orient="auto">
      <path d="M0,0 L0,6 L9,3 z" fill="#4b5563"/>
    </marker>
  </defs>
</svg>
